<svg xmlns="http://www.w3.org/2000/svg" viewBox="0 0 256 256">
  <rect x="22" y="52" width="212" height="176" rx="18" fill="#000" opacity="0.15"/>
  <rect x="18" y="46" width="212" height="176" rx="18" fill="#fff" stroke="#0078D4" stroke-width="9"/>
  <path d="M22 50 h204 v20 a6 6 0 0 1 -6 6 H28 a6 6 0 0 1 -6 -6 Z" fill="#0078D4"/>
  <line x1="178" y1="72" x2="192" y2="72" stroke="#fff" stroke-width="5"/>
  <rect x="198" y="66" width="11" height="11" fill="none" stroke="#fff" stroke-width="3"/>
  <line x1="214" y1="66" x2="224" y2="76" stroke="#fff" stroke-width="4"/>
  <line x1="224" y1="66" x2="214" y2="76" stroke="#fff" stroke-width="4"/>
  <rect x="98" y="78" width="60" height="124" rx="14" fill="#202124"/>
  <rect x="104" y="92" width="48" height="96" rx="8" fill="#3DDC84"/>
  <circle cx="126" cy="85" r="3.5" fill="#fff"/>
  <line x1="118" y1="196" x2="138" y2="196" stroke="#fff" stroke-width="3" opacity="0.6"/>
  <g fill="#fff" opacity="0.9">
    <circle cx="114" cy="108" r="4.5"/><circle cx="128" cy="108" r="4.5"/><circle cx="142" cy="108" r="4.5"/>
    <circle cx="114" cy="124" r="4.5"/><circle cx="128" cy="124" r="4.5"/><circle cx="142" cy="124" r="4.5"/>
    <circle cx="114" cy="140" r="4.5"/><circle cx="128" cy="140" r="4.5"/><circle cx="142" cy="140" r="4.5"/>
  </g>
  <rect x="34" y="196" width="44" height="10" rx="5" fill="#0078D4"/>
</svg>